<?xml version="1.0" encoding="UTF-8"?>
<svg width="13px" height="10px" viewBox="0 0 13 10" version="1.1" xmlns="http://www.w3.org/2000/svg" xmlns:xlink="http://www.w3.org/1999/xlink">
    <!-- Generator: Sketch 61 (89581) - https://sketch.com -->
    <title>arrow-icon</title>
    <desc>Created with Sketch.</desc>
    <g id="Design-System" stroke="none" stroke-width="1" fill="none" fill-rule="evenodd">
        <g id="Claim-Calculator---Desgin-System" transform="translate(-279.000000, -4500.000000)" fill="#269C74">
            <g id="Flight-1-Copy" transform="translate(150.000000, 4470.000000)">
                <path d="M141.753502,34.4687194 L137.588761,30.2195895 C137.30179,29.9268035 136.837742,29.9268035 136.564644,30.2195895 C136.277673,30.5123754 136.277673,30.985826 136.564644,31.2644575 L139.500445,34.2597458 L129.723818,34.2597458 C129.328045,34.2597458 129,34.5938807 129,34.9982307 C129,35.4020234 129.327499,35.7367155 129.723818,35.7367155 L139.487063,35.7367155 L136.564644,38.7320039 C136.277673,39.0247898 136.277673,39.4982404 136.564644,39.7768719 C136.701193,39.9161877 136.892143,40 137.083639,40 C137.274589,40 137.452212,39.9303421 137.602634,39.7768719 L141.781303,35.5135317 C141.917852,35.374216 142,35.1793969 142,34.9840205 C141.972264,34.8033419 141.89012,34.6079794 141.75357,34.4686637 L141.753502,34.4687194 Z" id="arrow-icon"></path>
            </g>
        </g>
    </g>
</svg>